<svg width="30" height="30" viewBox="0 0 30 30" fill="none" xmlns="http://www.w3.org/2000/svg">
<circle cx="14.771" cy="14.9287" r="14.4504" fill="#FFE3B3"/>
<path d="M23.5489 17.012C23.5489 17.012 21.5489 19.182 21.5489 20.512C21.5489 21.0424 21.7596 21.5511 22.1347 21.9262C22.5097 22.3012 23.0185 22.512 23.5489 22.512C24.0793 22.512 24.588 22.3012 24.9631 21.9262C25.3382 21.5511 25.5489 21.0424 25.5489 20.512C25.5489 19.182 23.5489 17.012 23.5489 17.012ZM9.75889 15.512L14.5489 10.722L19.3389 15.512M21.1089 14.452L12.1689 5.51196L10.7589 6.92196L13.1389 9.30196L7.98889 14.452C7.39889 15.012 7.39889 15.982 7.98889 16.572L13.4889 22.072C13.7789 22.362 14.1689 22.512 14.5489 22.512C14.9289 22.512 15.3189 22.362 15.6089 22.072L21.1089 16.572C21.6989 15.982 21.6989 15.012 21.1089 14.452Z" fill="#51646E"/>
<path d="M14.6178 20.5089L9.78784 15.4651H19.3552L14.6178 20.5089Z" fill="#FFA000"/>
</svg>
