<svg width="19" height="18" viewBox="0 0 19 18" fill="none" xmlns="http://www.w3.org/2000/svg">
<path d="M16.6238 12.012C16.6238 12.012 14.6238 14.182 14.6238 15.512C14.6238 16.0424 14.8346 16.5511 15.2096 16.9262C15.5847 17.3012 16.0934 17.512 16.6238 17.512C17.1543 17.512 17.663 17.3012 18.0381 16.9262C18.4131 16.5511 18.6238 16.0424 18.6238 15.512C18.6238 14.182 16.6238 12.012 16.6238 12.012ZM2.83384 10.512L7.62384 5.72196L12.4138 10.512M14.1838 9.45196L5.24384 0.511963L3.83384 1.92196L6.21384 4.30196L1.06384 9.45196C0.473838 10.012 0.473838 10.982 1.06384 11.572L6.56384 17.072C6.85384 17.362 7.24384 17.512 7.62384 17.512C8.00384 17.512 8.39384 17.362 8.68384 17.072L14.1838 11.572C14.7738 10.982 14.7738 10.012 14.1838 9.45196Z" fill="#51646E"/>
<path d="M7.69279 15.5089L2.86279 10.4651H12.4302L7.69279 15.5089Z" fill="#FFA000"/>
</svg>
