<svg width="20" height="19" viewBox="0 0 20 19" fill="none" xmlns="http://www.w3.org/2000/svg">
<path d="M7.52295 7.27746L2.36914 8.07037L6.92826 11.7375L5.73892 17.2878L9.90162 14.1162L15.0554 17.2878L13.6679 11.7375L17.5332 8.07037L12.2803 7.27746L9.90162 2.12366L7.52295 7.27746Z" fill="#FFA000"/>
<path d="M9.9812 13.4848L6.34292 15.6814L7.30087 11.5399L4.08835 8.75315L8.32656 8.39513L9.9812 4.48591L11.6358 8.39513L15.874 8.75315L12.6615 11.5399L13.6195 15.6814M19.6575 7.53394L12.7002 6.94369L9.9812 0.52832L7.26217 6.94369L0.304932 7.53394L5.5785 12.1108L4.00127 18.9132L9.9812 15.304L15.9611 18.9132L14.3742 12.1108L19.6575 7.53394Z" fill="#455A64"/>
</svg>
