<svg width="14" height="15" viewBox="0 0 14 15" fill="none" xmlns="http://www.w3.org/2000/svg">
<path d="M12.4539 14.1342L8.03977 9.40915C7.68945 9.70916 7.28657 9.94666 6.83114 10.1217C6.37571 10.2967 5.89109 10.3842 5.37727 10.3842C4.10441 10.3842 3.02727 9.91241 2.14584 8.96891C1.26395 8.02491 0.822998 6.87166 0.822998 5.50916C0.822998 4.14666 1.26395 2.99341 2.14584 2.04941C3.02727 1.10591 4.10441 0.634155 5.37727 0.634155C6.65014 0.634155 7.72751 1.10591 8.60941 2.04941C9.49084 2.99341 9.93155 4.14666 9.93155 5.50916C9.93155 6.05916 9.84981 6.57791 9.68632 7.0654C9.52283 7.55291 9.30096 7.98416 9.0207 8.35916L13.4348 13.0842L12.4539 14.1342ZM5.37727 8.88416C6.2531 8.88416 6.99766 8.55616 7.61097 7.90016C8.22381 7.24366 8.53023 6.44666 8.53023 5.50916C8.53023 4.57166 8.22381 3.77466 7.61097 3.11816C6.99766 2.46216 6.2531 2.13416 5.37727 2.13416C4.50145 2.13416 3.75689 2.46216 3.14358 3.11816C2.53073 3.77466 2.22431 4.57166 2.22431 5.50916C2.22431 6.44666 2.53073 7.24366 3.14358 7.90016C3.75689 8.55616 4.50145 8.88416 5.37727 8.88416Z" fill="#9E9E9E"/>
</svg>
